<?xml version="1.0" encoding="UTF-8" standalone="no"?>
<!DOCTYPE svg PUBLIC "-//W3C//DTD SVG 1.1//EN" "http://www.w3.org/Graphics/SVG/1.1/DTD/svg11.dtd">
<svg xmlns="http://www.w3.org/2000/svg" version="1.1" viewBox="0.00 0.00 109.00 146.00">
<g stroke-width="2.00" fill="none" stroke-linecap="butt">
<path stroke="#f5f5f1" vector-effect="non-scaling-stroke" d="
  M 107.2306 9.9152
  A 1.16 0.40 33.2 0 0 106.4790 8.9453
  A 1.16 0.40 33.2 0 0 105.2894 8.6448
  A 1.16 0.40 33.2 0 0 106.0410 9.6147
  A 1.16 0.40 33.2 0 0 107.2306 9.9152"
/>
<path stroke="#a4e9dd" vector-effect="non-scaling-stroke" d="
  M 50.75 39.24
  L 50.41 46.41"
/>
<path stroke="#9297a0" vector-effect="non-scaling-stroke" d="
  M 50.41 46.41
  L 50.27 66.47"
/>
<path stroke="#f5f5f1" vector-effect="non-scaling-stroke" d="
  M 50.27 66.47
  Q 29.40 74.48 27.56 95.63
  Q 26.68 105.69 32.14 114.10
  C 34.57 117.84 38.43 123.38 42.14 125.36
  Q 52.58 130.94 65.31 128.42
  C 69.44 127.61 73.00 124.60 76.74 122.51
  Q 77.20 122.25 76.88 121.83
  Q 76.02 120.71 74.55 120.85
  Q 74.08 120.89 73.70 120.60
  L 72.71 119.81"
/>
<path stroke="#969da7" vector-effect="non-scaling-stroke" d="
  M 72.71 119.81
  C 79.47 114.53 84.20 106.90 84.09 98.12"
/>
<path stroke="#a4e9dd" vector-effect="non-scaling-stroke" d="
  M 84.09 98.12
  Q 84.98 94.39 83.32 90.24"
/>
<path stroke="#95bcc1" vector-effect="non-scaling-stroke" d="
  M 83.32 90.24
  C 79.38 81.04 74.00 74.34 63.70 72.04"
/>
<path stroke="#9297a0" vector-effect="non-scaling-stroke" d="
  M 63.70 72.04
  L 63.77 68.22"
/>
<path stroke="#dce3d9" vector-effect="non-scaling-stroke" d="
  M 63.77 68.22
  Q 64.63 67.81 65.69 68.50
  A 0.34 0.32 -43.7 0 0 66.04 68.50
  L 66.56 68.20
  A 0.34 0.34 0.0 0 0 66.58 67.63
  Q 65.58 66.91 63.73 67.59"
/>
<path stroke="#9297a0" vector-effect="non-scaling-stroke" d="
  M 63.73 67.59
  C 63.76 57.66 63.16 46.97 64.17 37.22
  C 65.33 26.01 46.99 27.02 50.75 39.24"
/>
<path stroke="#6f7b7a" vector-effect="non-scaling-stroke" d="
  M 63.73 67.59
  L 63.77 68.22"
/>
<path stroke="#285462" vector-effect="non-scaling-stroke" d="
  M 63.70 72.04
  L 63.73 91.83"
/>
<path stroke="#295b68" vector-effect="non-scaling-stroke" d="
  M 63.73 91.83
  L 57.17 89.50
  A 1.33 1.30 -40.6 0 0 56.41 89.45
  L 50.74 90.76"
/>
<path stroke="#293548" vector-effect="non-scaling-stroke" d="
  M 50.74 90.76
  Q 50.90 88.95 50.45 88.51"
/>
<path stroke="#37817e" vector-effect="non-scaling-stroke" d="
  M 50.45 88.51
  L 50.36 72.22"
/>
<path stroke="#888d92" vector-effect="non-scaling-stroke" d="
  M 50.36 72.22
  L 50.27 66.47"
/>
<path stroke="#37817e" vector-effect="non-scaling-stroke" d="
  M 50.41 46.41
  Q 50.62 45.59 53.07 46.82"
/>
<path stroke="#888d92" vector-effect="non-scaling-stroke" d="
  M 53.07 46.82
  L 60.37 51.62
  A 0.41 0.41 0.0 0 0 61.00 51.28
  L 61.01 42.79
  Q 61.01 42.39 60.65 42.56
  Q 57.21 44.24 53.39 42.23"
/>
<path stroke="#37817e" vector-effect="non-scaling-stroke" d="
  M 53.39 42.23
  L 50.75 39.24"
/>
<path stroke="#9adecf" vector-effect="non-scaling-stroke" d="
  M 50.36 72.22
  Q 32.36 79.42 31.27 99.12"
/>
<path stroke="#d1d8cb" vector-effect="non-scaling-stroke" d="
  M 31.27 99.12
  Q 30.46 99.52 30.28 100.29
  Q 30.16 100.84 30.65 101.60
  Q 31.45 102.82 32.30 104.42"
/>
<path stroke="#8b9399" vector-effect="non-scaling-stroke" d="
  M 32.30 104.42
  Q 32.50 106.70 33.59 108.71"
/>
<path stroke="#d1d8cb" vector-effect="non-scaling-stroke" d="
  M 33.59 108.71
  Q 34.60 114.24 37.36 114.20"
/>
<path stroke="#8b9399" vector-effect="non-scaling-stroke" d="
  M 37.36 114.20
  C 46.75 124.84 60.65 128.14 72.71 119.81"
/>
<path stroke="#3aa59f" vector-effect="non-scaling-stroke" d="
  M 83.32 90.24
  C 81.69 93.50 80.61 96.34 77.90 99.11
  Q 74.92 102.18 75.15 106.32"
/>
<path stroke="#2c5a69" vector-effect="non-scaling-stroke" d="
  M 75.15 106.32
  Q 74.61 108.01 72.04 109.47
  A 0.59 0.59 0.0 0 1 71.30 109.34
  L 69.94 107.79
  Q 69.55 107.35 69.22 107.83
  Q 64.70 114.43 56.51 113.44
  Q 56.28 113.41 56.16 113.31
  Q 56.03 113.18 56.00 113.02
  Q 55.89 112.51 56.41 112.52
  C 68.54 112.70 74.97 100.93 67.37 91.09
  Q 66.26 89.64 65.05 91.02
  Q 64.22 91.25 64.61 91.87"
/>
<path stroke="#2c8089" vector-effect="non-scaling-stroke" d="
  M 64.61 91.87
  Q 63.92 92.18 63.73 91.83"
/>
<path stroke="#3b8784" vector-effect="non-scaling-stroke" d="
  M 50.45 88.51
  Q 49.46 88.05 48.48 89.22
  C 43.25 95.44 41.46 102.92 47.66 109.22
  Q 48.03 109.61 47.49 109.63
  C 42.39 109.80 35.36 102.61 31.82 98.54"
/>
<path stroke="#81ccb6" vector-effect="non-scaling-stroke" d="
  M 31.82 98.54
  Q 31.55 98.83 31.27 99.12"
/>
<path stroke="#9adecf" vector-effect="non-scaling-stroke" d="
  M 53.39 42.23
  L 53.07 46.82"
/>
<path stroke="#2d616f" vector-effect="non-scaling-stroke" d="
  M 50.74 90.76
  C 39.38 100.94 52.95 116.77 63.96 107.75
  Q 71.39 101.67 64.61 91.87"
/>
<path stroke="#3b8784" vector-effect="non-scaling-stroke" d="
  M 75.15 106.32
  L 84.09 98.12"
/>
<path stroke="#728180" vector-effect="non-scaling-stroke" d="
  M 37.36 114.20
  Q 36.07 113.33 36.22 111.69
  A 1.08 1.07 -66.5 0 0 35.87 110.79
  L 33.59 108.71"
/>
<path stroke="#728180" vector-effect="non-scaling-stroke" d="
  M 32.30 104.42
  L 31.82 98.54"
/>
<path stroke="#f5f5f1" vector-effect="non-scaling-stroke" d="
  M 73.2389 54.1473
  A 0.96 0.42 42.4 0 0 72.8132 53.1898
  A 0.96 0.42 42.4 0 0 71.8211 52.8527
  A 0.96 0.42 42.4 0 0 72.2468 53.8102
  A 0.96 0.42 42.4 0 0 73.2389 54.1473"
/>
<path stroke="#dce3d9" vector-effect="non-scaling-stroke" d="
  M 68.15 70.35
  A 0.54 0.54 0.0 0 0 68.91 70.19
  Q 69.15 69.82 68.97 69.42
  Q 68.86 69.16 68.56 69.05
  Q 68.08 68.88 67.56 69.07
  A 0.46 0.45 -37.5 0 0 67.45 69.87
  L 68.15 70.35"
/>
<path stroke="#f5f5f1" vector-effect="non-scaling-stroke" d="
  M 82.05 79.55
  Q 81.80 79.03 81.48 78.52
  A 0.36 0.36 0.0 0 0 80.86 78.89
  L 82.35 81.53
  A 0.53 0.53 0.0 0 0 83.30 81.07
  Q 83.12 80.64 82.65 80.29
  Q 82.27 79.99 82.05 79.55"
/>
<path stroke="#dce3d9" vector-effect="non-scaling-stroke" d="
  M 54.0118 142.7720
  A 0.91 0.77 71.3 0 0 54.4494 141.6631
  A 0.91 0.77 71.3 0 0 53.4282 141.0480
  A 0.91 0.77 71.3 0 0 52.9906 142.1569
  A 0.91 0.77 71.3 0 0 54.0118 142.7720"
/>
<path stroke="#6f7b7a" vector-effect="non-scaling-stroke" d="
  M 61.23 36.43
  A 3.93 3.93 0.0 0 0 57.30 32.50
  A 3.93 3.93 0.0 0 0 53.37 36.43
  A 3.93 3.93 0.0 0 0 57.30 40.36
  A 3.93 3.93 0.0 0 0 61.23 36.43"
/>
<path stroke="#37817e" vector-effect="non-scaling-stroke" d="
  M 53.14 71.94
  L 53.05 87.10
  Q 53.04 87.71 53.61 87.49
  Q 56.86 86.22 60.19 87.19
  Q 60.74 87.34 60.74 86.78
  L 60.78 71.58"
/>
<path stroke="#888d92" vector-effect="non-scaling-stroke" d="
  M 60.78 71.58
  L 60.91 56.35
  Q 60.92 55.78 60.44 55.46
  L 53.90 51.11
  Q 53.24 50.68 53.24 51.47
  L 53.14 71.94"
/>
<path stroke="#9adecf" vector-effect="non-scaling-stroke" d="
  M 60.78 71.58
  L 53.14 71.94"
/>
</g>
<path fill="#ffffff" d="
  M 0.00 0.00
  L 109.00 0.00
  L 109.00 146.00
  L 0.00 146.00
  L 0.00 0.00
  Z
  M 107.2306 9.9152
  A 1.16 0.40 33.2 0 0 106.4790 8.9453
  A 1.16 0.40 33.2 0 0 105.2894 8.6448
  A 1.16 0.40 33.2 0 0 106.0410 9.6147
  A 1.16 0.40 33.2 0 0 107.2306 9.9152
  Z
  M 50.75 39.24
  L 50.41 46.41
  L 50.27 66.47
  Q 29.40 74.48 27.56 95.63
  Q 26.68 105.69 32.14 114.10
  C 34.57 117.84 38.43 123.38 42.14 125.36
  Q 52.58 130.94 65.31 128.42
  C 69.44 127.61 73.00 124.60 76.74 122.51
  Q 77.20 122.25 76.88 121.83
  Q 76.02 120.71 74.55 120.85
  Q 74.08 120.89 73.70 120.60
  L 72.71 119.81
  C 79.47 114.53 84.20 106.90 84.09 98.12
  Q 84.98 94.39 83.32 90.24
  C 79.38 81.04 74.00 74.34 63.70 72.04
  L 63.77 68.22
  Q 64.63 67.81 65.69 68.50
  A 0.34 0.32 -43.7 0 0 66.04 68.50
  L 66.56 68.20
  A 0.34 0.34 0.0 0 0 66.58 67.63
  Q 65.58 66.91 63.73 67.59
  C 63.76 57.66 63.16 46.97 64.17 37.22
  C 65.33 26.01 46.99 27.02 50.75 39.24
  Z
  M 73.2389 54.1473
  A 0.96 0.42 42.4 0 0 72.8132 53.1898
  A 0.96 0.42 42.4 0 0 71.8211 52.8527
  A 0.96 0.42 42.4 0 0 72.2468 53.8102
  A 0.96 0.42 42.4 0 0 73.2389 54.1473
  Z
  M 68.15 70.35
  A 0.54 0.54 0.0 0 0 68.91 70.19
  Q 69.15 69.82 68.97 69.42
  Q 68.86 69.16 68.56 69.05
  Q 68.08 68.88 67.56 69.07
  A 0.46 0.45 -37.5 0 0 67.45 69.87
  L 68.15 70.35
  Z
  M 82.05 79.55
  Q 81.80 79.03 81.48 78.52
  A 0.36 0.36 0.0 0 0 80.86 78.89
  L 82.35 81.53
  A 0.53 0.53 0.0 0 0 83.30 81.07
  Q 83.12 80.64 82.65 80.29
  Q 82.27 79.99 82.05 79.55
  Z
  M 54.0118 142.7720
  A 0.91 0.77 71.3 0 0 54.4494 141.6631
  A 0.91 0.77 71.3 0 0 53.4282 141.0480
  A 0.91 0.77 71.3 0 0 52.9906 142.1569
  A 0.91 0.77 71.3 0 0 54.0118 142.7720
  Z"
/>
<ellipse fill="#eaeae3" cx="0.00" cy="0.00" transform="translate(106.26,9.28) rotate(33.2)" rx="1.16" ry="0.40"/>
<path fill="#252f41" d="
  M 63.73 67.59
  L 63.77 68.22
  L 63.70 72.04
  L 63.73 91.83
  L 57.17 89.50
  A 1.33 1.30 -40.6 0 0 56.41 89.45
  L 50.74 90.76
  Q 50.90 88.95 50.45 88.51
  L 50.36 72.22
  L 50.27 66.47
  L 50.41 46.41
  Q 50.62 45.59 53.07 46.82
  L 60.37 51.62
  A 0.41 0.41 0.0 0 0 61.00 51.28
  L 61.01 42.79
  Q 61.01 42.39 60.65 42.56
  Q 57.21 44.24 53.39 42.23
  L 50.75 39.24
  C 46.99 27.02 65.33 26.01 64.17 37.22
  C 63.16 46.97 63.76 57.66 63.73 67.59
  Z
  M 61.23 36.43
  A 3.93 3.93 0.0 0 0 57.30 32.50
  A 3.93 3.93 0.0 0 0 53.37 36.43
  A 3.93 3.93 0.0 0 0 57.30 40.36
  A 3.93 3.93 0.0 0 0 61.23 36.43
  Z
  M 53.14 71.94
  L 53.05 87.10
  Q 53.04 87.71 53.61 87.49
  Q 56.86 86.22 60.19 87.19
  Q 60.74 87.34 60.74 86.78
  L 60.78 71.58
  L 60.91 56.35
  Q 60.92 55.78 60.44 55.46
  L 53.90 51.11
  Q 53.24 50.68 53.24 51.47
  L 53.14 71.94
  Z"
/>
<circle fill="#b8c6b2" cx="57.30" cy="36.43" r="3.93"/>
<path fill="#49d2ba" d="
  M 50.75 39.24
  L 53.39 42.23
  L 53.07 46.82
  Q 50.62 45.59 50.41 46.41
  L 50.75 39.24
  Z"
/>
<path fill="#eaeae3" d="
  M 53.39 42.23
  Q 57.21 44.24 60.65 42.56
  Q 61.01 42.39 61.01 42.79
  L 61.00 51.28
  A 0.41 0.41 0.0 0 1 60.37 51.62
  L 53.07 46.82
  L 53.39 42.23
  Z"
/>
<path fill="#eaeae3" d="
  M 60.78 71.58
  L 53.14 71.94
  L 53.24 51.47
  Q 53.24 50.68 53.90 51.11
  L 60.44 55.46
  Q 60.92 55.78 60.91 56.35
  L 60.78 71.58
  Z"
/>
<ellipse fill="#eaeae3" cx="0.00" cy="0.00" transform="translate(72.53,53.50) rotate(42.4)" rx="0.96" ry="0.42"/>
<path fill="#eaeae3" d="
  M 50.27 66.47
  L 50.36 72.22
  Q 32.36 79.42 31.27 99.12
  Q 30.46 99.52 30.28 100.29
  Q 30.16 100.84 30.65 101.60
  Q 31.45 102.82 32.30 104.42
  Q 32.50 106.70 33.59 108.71
  Q 34.60 114.24 37.36 114.20
  C 46.75 124.84 60.65 128.14 72.71 119.81
  L 73.70 120.60
  Q 74.08 120.89 74.55 120.85
  Q 76.02 120.71 76.88 121.83
  Q 77.20 122.25 76.74 122.51
  C 73.00 124.60 69.44 127.61 65.31 128.42
  Q 52.58 130.94 42.14 125.36
  C 38.43 123.38 34.57 117.84 32.14 114.10
  Q 26.68 105.69 27.56 95.63
  Q 29.40 74.48 50.27 66.47
  Z"
/>
<path fill="#b8c6b2" d="
  M 63.77 68.22
  L 63.73 67.59
  Q 65.58 66.91 66.58 67.63
  A 0.34 0.34 0.0 0 1 66.56 68.20
  L 66.04 68.50
  A 0.34 0.32 -43.7 0 1 65.69 68.50
  Q 64.63 67.81 63.77 68.22
  Z"
/>
<path fill="#b8c6b2" d="
  M 68.15 70.35
  L 67.45 69.87
  A 0.46 0.45 -37.5 0 1 67.56 69.07
  Q 68.08 68.88 68.56 69.05
  Q 68.86 69.16 68.97 69.42
  Q 69.15 69.82 68.91 70.19
  A 0.54 0.54 0.0 0 1 68.15 70.35
  Z"
/>
<path fill="#49d2ba" d="
  M 60.78 71.58
  L 60.74 86.78
  Q 60.74 87.34 60.19 87.19
  Q 56.86 86.22 53.61 87.49
  Q 53.04 87.71 53.05 87.10
  L 53.14 71.94
  L 60.78 71.58
  Z"
/>
<path fill="#2b7883" d="
  M 63.70 72.04
  C 74.00 74.34 79.38 81.04 83.32 90.24
  C 81.69 93.50 80.61 96.34 77.90 99.11
  Q 74.92 102.18 75.15 106.32
  Q 74.61 108.01 72.04 109.47
  A 0.59 0.59 0.0 0 1 71.30 109.34
  L 69.94 107.79
  Q 69.55 107.35 69.22 107.83
  Q 64.70 114.43 56.51 113.44
  Q 56.28 113.41 56.16 113.31
  Q 56.03 113.18 56.00 113.02
  Q 55.89 112.51 56.41 112.52
  C 68.54 112.70 74.97 100.93 67.37 91.09
  Q 66.26 89.64 65.05 91.02
  Q 64.22 91.25 64.61 91.87
  Q 63.92 92.18 63.73 91.83
  L 63.70 72.04
  Z"
/>
<path fill="#49d2ba" d="
  M 50.36 72.22
  L 50.45 88.51
  Q 49.46 88.05 48.48 89.22
  C 43.25 95.44 41.46 102.92 47.66 109.22
  Q 48.03 109.61 47.49 109.63
  C 42.39 109.80 35.36 102.61 31.82 98.54
  Q 31.55 98.83 31.27 99.12
  Q 32.36 79.42 50.36 72.22
  Z"
/>
<path fill="#eaeae3" d="
  M 82.65 80.29
  Q 83.12 80.64 83.30 81.07
  A 0.53 0.53 0.0 0 1 82.35 81.53
  L 80.86 78.89
  A 0.36 0.36 0.0 0 1 81.48 78.52
  Q 81.80 79.03 82.05 79.55
  Q 82.27 79.99 82.65 80.29
  Z"
/>
<path fill="#2c3b4e" d="
  M 50.45 88.51
  Q 50.90 88.95 50.74 90.76
  C 39.38 100.94 52.95 116.77 63.96 107.75
  Q 71.39 101.67 64.61 91.87
  Q 64.22 91.25 65.05 91.02
  Q 66.26 89.64 67.37 91.09
  C 74.97 100.93 68.54 112.70 56.41 112.52
  Q 55.89 112.51 56.00 113.02
  Q 56.03 113.18 56.16 113.31
  Q 56.28 113.41 56.51 113.44
  Q 64.70 114.43 69.22 107.83
  Q 69.55 107.35 69.94 107.79
  L 71.30 109.34
  A 0.59 0.59 0.0 0 0 72.04 109.47
  Q 74.61 108.01 75.15 106.32
  L 84.09 98.12
  C 84.20 106.90 79.47 114.53 72.71 119.81
  C 60.65 128.14 46.75 124.84 37.36 114.20
  Q 36.07 113.33 36.22 111.69
  A 1.08 1.07 -66.5 0 0 35.87 110.79
  L 33.59 108.71
  Q 32.50 106.70 32.30 104.42
  L 31.82 98.54
  C 35.36 102.61 42.39 109.80 47.49 109.63
  Q 48.03 109.61 47.66 109.22
  C 41.46 102.92 43.25 95.44 48.48 89.22
  Q 49.46 88.05 50.45 88.51
  Z"
/>
<path fill="#2d878f" d="
  M 63.73 91.83
  Q 63.92 92.18 64.61 91.87
  Q 71.39 101.67 63.96 107.75
  C 52.95 116.77 39.38 100.94 50.74 90.76
  L 56.41 89.45
  A 1.33 1.30 -40.6 0 1 57.17 89.50
  L 63.73 91.83
  Z"
/>
<path fill="#49d2ba" d="
  M 83.32 90.24
  Q 84.98 94.39 84.09 98.12
  L 75.15 106.32
  Q 74.92 102.18 77.90 99.11
  C 80.61 96.34 81.69 93.50 83.32 90.24
  Z"
/>
<path fill="#b8c6b2" d="
  M 31.27 99.12
  Q 31.55 98.83 31.82 98.54
  L 32.30 104.42
  Q 31.45 102.82 30.65 101.60
  Q 30.16 100.84 30.28 100.29
  Q 30.46 99.52 31.27 99.12
  Z"
/>
<path fill="#b8c6b2" d="
  M 33.59 108.71
  L 35.87 110.79
  A 1.08 1.07 -66.5 0 1 36.22 111.69
  Q 36.07 113.33 37.36 114.20
  Q 34.60 114.24 33.59 108.71
  Z"
/>
<ellipse fill="#b8c6b2" cx="0.00" cy="0.00" transform="translate(53.72,141.91) rotate(71.3)" rx="0.91" ry="0.77"/>
</svg>
